<svg width="1200" height="1500" viewBox="0 0 1200 1500" fill="none" xmlns="http://www.w3.org/2000/svg">
  <rect width="1200" height="1500" rx="60" fill="url(#paint0_linear_1_2)"/>
  <circle cx="220" cy="190" r="130" fill="#D1FAE5" fill-opacity="0.75"/>
  <circle cx="955" cy="238" r="160" fill="#FDE68A" fill-opacity="0.45"/>
  <circle cx="970" cy="1120" r="180" fill="#BBF7D0" fill-opacity="0.35"/>
  <rect x="120" y="250" width="960" height="1020" rx="48" fill="white" fill-opacity="0.62" stroke="white" stroke-width="2"/>
  <rect x="160" y="310" width="400" height="900" rx="36" fill="#FFF8EC"/>
  <rect x="600" y="310" width="440" height="430" rx="36" fill="#F0FDF4"/>
  <rect x="600" y="770" width="440" height="440" rx="36" fill="#FFFBF0"/>
  <circle cx="300" cy="600" r="120" fill="#D9EAFD"/>
  <circle cx="385" cy="530" r="98" fill="#F9D7C3"/>
  <circle cx="425" cy="445" r="50" fill="#2F3A4F"/>
  <rect x="248" y="650" width="190" height="260" rx="92" fill="#A7F3D0"/>
  <rect x="190" y="900" width="310" height="120" rx="34" fill="#FDE68A"/>
  <rect x="676" y="390" width="304" height="112" rx="28" fill="white"/>
  <rect x="676" y="534" width="304" height="112" rx="28" fill="white"/>
  <rect x="676" y="850" width="304" height="116" rx="28" fill="white"/>
  <rect x="676" y="994" width="304" height="116" rx="28" fill="white"/>
  <rect x="700" y="414" width="104" height="16" rx="8" fill="#047857"/>
  <rect x="700" y="450" width="186" height="16" rx="8" fill="#CBD5E1"/>
  <rect x="700" y="558" width="118" height="16" rx="8" fill="#0F172A"/>
  <rect x="700" y="594" width="208" height="16" rx="8" fill="#CBD5E1"/>
  <rect x="700" y="874" width="132" height="16" rx="8" fill="#047857"/>
  <rect x="700" y="910" width="206" height="16" rx="8" fill="#CBD5E1"/>
  <rect x="700" y="1018" width="152" height="16" rx="8" fill="#0F172A"/>
  <rect x="700" y="1054" width="182" height="16" rx="8" fill="#CBD5E1"/>
  <rect x="650" y="1125" width="360" height="78" rx="24" fill="#DCFCE7"/>
  <text x="680" y="1170" fill="#047857" font-family="Arial, Helvetica, sans-serif" font-size="24" font-weight="700" letter-spacing="6">TRUSTED ACCESS POINT</text>
  <defs>
    <linearGradient id="paint0_linear_1_2" x1="100" y1="120" x2="1100" y2="1380" gradientUnits="userSpaceOnUse">
      <stop stop-color="#F8FAF7"/>
      <stop offset="0.5" stop-color="#F0FDF4"/>
      <stop offset="1" stop-color="#FFF7ED"/>
    </linearGradient>
  </defs>
</svg>
