<svg width="1400" height="900" viewBox="0 0 1400 900" fill="none" xmlns="http://www.w3.org/2000/svg">
  <rect width="1400" height="900" rx="48" fill="url(#paint0_linear_1_2)"/>
  <circle cx="260" cy="168" r="135" fill="#D1FAE5" fill-opacity="0.65"/>
  <circle cx="1160" cy="214" r="175" fill="#FDE68A" fill-opacity="0.38"/>
  <rect x="120" y="120" width="1160" height="660" rx="42" fill="white" fill-opacity="0.66"/>
  <rect x="170" y="170" width="470" height="560" rx="34" fill="#F0FDF4"/>
  <rect x="682" y="170" width="498" height="260" rx="34" fill="#FFF7ED"/>
  <rect x="682" y="458" width="498" height="272" rx="34" fill="#F8FAFC"/>
  <circle cx="390" cy="330" r="84" fill="#F7D6C8"/>
  <circle cx="462" cy="292" r="70" fill="#CBD5E1"/>
  <rect x="320" y="400" width="180" height="230" rx="84" fill="#A7F3D0"/>
  <rect x="254" y="608" width="310" height="72" rx="22" fill="#86EFAC"/>
  <rect x="734" y="214" width="156" height="18" rx="9" fill="#047857"/>
  <rect x="734" y="248" width="300" height="16" rx="8" fill="#CBD5E1"/>
  <rect x="734" y="304" width="162" height="84" rx="22" fill="white"/>
  <rect x="914" y="304" width="162" height="84" rx="22" fill="white"/>
  <rect x="734" y="488" width="126" height="126" rx="28" fill="white"/>
  <rect x="878" y="488" width="126" height="126" rx="28" fill="white"/>
  <rect x="1022" y="488" width="126" height="126" rx="28" fill="white"/>
  <rect x="734" y="646" width="300" height="42" rx="21" fill="#DCFCE7"/>
  <rect x="734" y="340" width="110" height="12" rx="6" fill="#0F172A"/>
  <rect x="734" y="366" width="128" height="12" rx="6" fill="#CBD5E1"/>
  <rect x="914" y="340" width="88" height="12" rx="6" fill="#0F172A"/>
  <rect x="914" y="366" width="96" height="12" rx="6" fill="#CBD5E1"/>
  <rect x="770" y="522" width="54" height="54" rx="18" fill="#047857"/>
  <rect x="914" y="522" width="54" height="54" rx="18" fill="#A16207"/>
  <rect x="1058" y="522" width="54" height="54" rx="18" fill="#2563EB"/>
  <defs>
    <linearGradient id="paint0_linear_1_2" x1="120" y1="80" x2="1280" y2="820" gradientUnits="userSpaceOnUse">
      <stop stop-color="#F8FAF5"/>
      <stop offset="0.52" stop-color="#FFF7ED"/>
      <stop offset="1" stop-color="#EFF6FF"/>
    </linearGradient>
  </defs>
</svg>
