<svg width="1200" height="900" viewBox="0 0 1200 900" fill="none" xmlns="http://www.w3.org/2000/svg">
  <rect width="1200" height="900" rx="48" fill="url(#paint0_linear_1_2)"/>
  <circle cx="198" cy="190" r="120" fill="#FDE68A" fill-opacity="0.5"/>
  <circle cx="1020" cy="120" r="150" fill="#D1FAE5" fill-opacity="0.6"/>
  <rect x="90" y="110" width="1020" height="680" rx="40" fill="white" fill-opacity="0.62"/>
  <rect x="128" y="150" width="310" height="600" rx="28" fill="#FFF7ED"/>
  <rect x="468" y="150" width="604" height="600" rx="28" fill="#F8FAFC"/>
  <circle cx="250" cy="350" r="86" fill="#CBD5E1"/>
  <circle cx="315" cy="314" r="78" fill="#F7D6C8"/>
  <rect x="188" y="416" width="126" height="156" rx="58" fill="#A7F3D0"/>
  <rect x="154" y="596" width="196" height="86" rx="24" fill="#FED7AA"/>
  <rect x="520" y="206" width="206" height="32" rx="16" fill="#0F172A"/>
  <rect x="520" y="260" width="436" height="18" rx="9" fill="#CBD5E1"/>
  <rect x="520" y="296" width="520" height="18" rx="9" fill="#CBD5E1"/>
  <rect x="520" y="356" width="130" height="120" rx="24" fill="white"/>
  <rect x="674" y="356" width="130" height="120" rx="24" fill="white"/>
  <rect x="828" y="356" width="130" height="120" rx="24" fill="white"/>
  <rect x="520" y="506" width="438" height="72" rx="24" fill="#ECFDF5"/>
  <rect x="520" y="600" width="438" height="72" rx="24" fill="#FFFBEB"/>
  <circle cx="581" cy="415" r="20" fill="#EF4444"/>
  <circle cx="735" cy="415" r="20" fill="#F59E0B"/>
  <circle cx="889" cy="415" r="20" fill="#3B82F6"/>
  <rect x="552" y="526" width="170" height="14" rx="7" fill="#047857"/>
  <rect x="552" y="560" width="288" height="12" rx="6" fill="#CBD5E1"/>
  <rect x="552" y="620" width="136" height="14" rx="7" fill="#A16207"/>
  <rect x="552" y="654" width="288" height="12" rx="6" fill="#CBD5E1"/>
  <defs>
    <linearGradient id="paint0_linear_1_2" x1="98" y1="104" x2="1090" y2="786" gradientUnits="userSpaceOnUse">
      <stop stop-color="#FFFBF0"/>
      <stop offset="0.52" stop-color="#F8FAF5"/>
      <stop offset="1" stop-color="#EEF7EE"/>
    </linearGradient>
  </defs>
</svg>
